# xmcd
#
# Track frame offsets:
#	150
#	18150
#	38700
#	58350
#	75150
#	96300
#	116925
#	142350
#	159450
#	178575
#	200400
#	221175
#	239925
#	260175
#	278775
#	295800
#
# Disc length: 4479
#
# Revision: 2
# Processed by: cddbd v1.5.1PL0 Copyright (c) Steve Scherf et al.
# Submitted via: EasyCDDAExtractor 4.5.0.2
# Normalized: r0:TDELIM( - ),TSWAP
#
DISCID=01117d10
DTITLE=Diaforoi - Gold Ballads
DYEAR=1995
DGENRE=Ballad
TTITLE0=TAKE THAT - Back For Good
TTITLE1=THE CONNELS - '74-75
TTITLE2=RICHARD MARX - Right Here Waiting
TTITLE3=BRUCE SPRINGSTEEN - Streets Of Philadelphia
TTITLE4=CELINE DION - Think Twice
TTITLE5=PETER CETERA with CRYSTAL BERNARD - Forever Tonight
TTITLE6=REGINA BELLE - Baby Come To Me
TTITLE7=JANET JACKSON - Again
TTITLE8=TINA TURNER - I Don't Want To Lose You
TTITLE9=ANNIE LENOX - No More I Love You's
TTITLE10=PHIL COLLINS - Do You Remember
TTITLE11=ROBERT PALMER - Know By Now
TTITLE12=TONI BRAXTON - Breathe Again
TTITLE13=JOSHUA KADISON - Beautiful In My Eyes
TTITLE14=SCARLET - Independent Love Song
TTITLE15=GUNS N' ROSES - November Rain
EXTD=
EXTT0=
EXTT1=
EXTT2=
EXTT3=
EXTT4=
EXTT5=
EXTT6=
EXTT7=
EXTT8=
EXTT9=
EXTT10=
EXTT11=
EXTT12=
EXTT13=
EXTT14=
EXTT15=
PLAYORDER=
